<svg fill="none" height="64" viewBox="0 0 64 64" width="64" xmlns="http://www.w3.org/2000/svg"><path d="m0 0h64v64h-64z" fill="#1e1e1e"/><circle cx="32" cy="32" fill="#d9d9d9" r="32"/><g fill="#537bc3"><circle cx="32" cy="38" r="21"/><path d="m34 7c.0365-.27372-.1558-.5252-.4295-.5617-.2738-.0365-.5252.15581-.5617.42953zm-2 15 2-15-.9912-.13217-2 14.99997z"/><path d="m36.4518 7.06841c-.2421 1.45272.7393 2.82666 2.192 3.06879 1.4527.2421 2.8267-.73928 3.0688-2.192s-.7393-2.82666-2.192-3.06878-2.8267.73927-3.0688 2.19199zm-3.4518-.06841 6 1 .1644-.98639-6-1z"/></g></svg>