<svg width="51" height="60" viewBox="0 0 51 60" fill="none" xmlns="http://www.w3.org/2000/svg">
<mask id="path-1-inside-1_4_16" fill="white">
<path d="M42.6777 17.3223C37.9893 12.6339 31.6304 10 25 10C18.3696 9.99999 12.0108 12.6339 7.32236 17.3223L9.97401 19.974C13.9592 15.9888 19.3642 13.75 25 13.75C30.6359 13.75 36.0409 15.9888 40.026 19.974L42.6777 17.3223Z"/>
</mask>
<path d="M42.6777 17.3223C37.9893 12.6339 31.6304 10 25 10C18.3696 9.99999 12.0108 12.6339 7.32236 17.3223L9.97401 19.974C13.9592 15.9888 19.3642 13.75 25 13.75C30.6359 13.75 36.0409 15.9888 40.026 19.974L42.6777 17.3223Z" stroke="#D9D9D9" stroke-width="2" mask="url(#path-1-inside-1_4_16)"/>
<path d="M4.24264 22.8995L4.81104 14.9826L12.1595 22.3311L4.24264 22.8995Z" fill="#D9D9D9"/>
<mask id="path-3-inside-2_4_16" fill="white">
<path d="M7.32233 42.6777C12.0107 47.3661 18.3696 50 25 50C31.6304 50 37.9892 47.3661 42.6776 42.6777L40.026 40.026C36.0408 44.0112 30.6358 46.25 25 46.25C19.3641 46.25 13.9591 44.0112 9.97398 40.026L7.32233 42.6777Z"/>
</mask>
<path d="M7.32233 42.6777C12.0107 47.3661 18.3696 50 25 50C31.6304 50 37.9892 47.3661 42.6776 42.6777L40.026 40.026C36.0408 44.0112 30.6358 46.25 25 46.25C19.3641 46.25 13.9591 44.0112 9.97398 40.026L7.32233 42.6777Z" stroke="#D9D9D9" stroke-width="2" mask="url(#path-3-inside-2_4_16)"/>
<path d="M45.8995 37.2426L45.3311 45.1595L37.9826 37.811L45.8995 37.2426Z" fill="#D9D9D9"/>
</svg>
